<svg width="301" height="354" viewBox="0 0 301 354" fill="none" xmlns="http://www.w3.org/2000/svg">
<path d="M25 326V27H1V1H300.5V27H274.5V326H300.5V353H1V326H25Z" fill="#4B2E01"/>
<path d="M161.5 318V34H266V318H161.5Z" fill="#4B2E01"/>
<path d="M141.5 318.5V34.5H37V318.5H141.5Z" fill="#4B2E01"/>
<path d="M266 253H162V261.5H266V253Z" fill="#4B2E01"/>
<path d="M37 253.5H141V262H37V253.5Z" fill="#4B2E01"/>
<path d="M25 27V326M25 27H274.5M25 27H1V1H300.5V27H274.5M25 326H274.5M25 326H1V353H300.5V326H274.5M274.5 326V27M151.5 28.5V325.5M151.5 29V326M162 103H266V113.5H162V177.5H266V187H162V253M162 253H266V261.5H162V253ZM141 103.5H37V114H141V178H37V187.5H141V253.5M141 253.5H37V262H141V253.5ZM161.5 318H266V34H161.5V318ZM141.5 318.5H37V34.5H141.5V318.5Z" stroke="black"/>
<path d="M141.5 34.5H37V104H141.5V34.5Z" fill="#5CF1E8" stroke="black"/>
<path d="M266.5 34.5H162V104H266.5V34.5Z" fill="#5CF1E8" stroke="black"/>
<path d="M141 114H37V177H141V114Z" fill="#5CF1E8" stroke="black"/>
<path d="M266 114H162V177H266V114Z" fill="#5CF1E8" stroke="black"/>
<path d="M141 187H37V254H141V187Z" fill="#5CF1E8" stroke="black"/>
<path d="M266 187H162V254H266V187Z" fill="#5CF1E8" stroke="black"/>
<path d="M141 262H37V318H141V262Z" fill="#5CF1E8" stroke="black"/>
<path d="M266 262H162V318H266V262Z" fill="#5CF1E8" stroke="black"/>
</svg>
