<svg width="302" height="354" viewBox="0 0 302 354" fill="none" xmlns="http://www.w3.org/2000/svg">
<path d="M25.5 27.5H1V1H301V27.5H275V325H300.5V353H1V325H24.5L25.5 27.5Z" fill="#4B2E01"/>
<path d="M25.5 27.5H1V1H301V27.5H275M25.5 27.5L24.5 325M25.5 27.5H275M275 27.5V325M275 325H300.5V353H1V325H24.5M275 325H24.5" stroke="black"/>
<path d="M122.5 52.5L48.5 27.5H250.5L175.5 52.5V300.5L252 324H47.5L122.5 300.5V52.5Z" fill="white" stroke="black"/>
<path d="M274 323.5H252L176.5 300.5V180.5M274 323.5V27.5M274 323.5C272.111 322.926 270.103 322.316 268 321.676M274 27.5H252L176.5 53V176.75M274 27.5L268 29.489M268 29.489L183.5 57.5C183.5 72.7819 183.5 91.0176 183.5 110.5M268 29.489V98.5M268 321.676C236.514 312.095 183.5 295.875 183.5 295.5C183.5 295.359 183.5 275.554 183.5 246.5M268 321.676V246.5M183.5 110.5L268 98.5M183.5 110.5C183.5 111.828 183.5 113.161 183.5 114.5M183.5 110.5V114.5M268 98.5V103M176.5 176.75L268 169.5M176.5 176.75V180.5M268 169.5V103M268 169.5V174.5M183.5 246.5H268M183.5 246.5C183.5 245.023 183.5 243.523 183.5 242M183.5 246.5V242M268 246.5V242M183.5 114.5L268 103M183.5 114.5C183.5 157.561 183.5 206.053 183.5 242M176.5 180.5L268 174.5M268 174.5V242M183.5 242H268" stroke="black"/>
<path d="M25 324H47L122.5 301V181M25 324V28M25 324C26.8891 323.426 28.8965 322.816 31 322.176M25 28H47L122.5 53.5V177.25M25 28L31 29.989M31 29.989L115.5 58C115.5 73.2819 115.5 91.5176 115.5 111M31 29.989V99M31 322.176C62.4865 312.595 115.5 296.375 115.5 296C115.5 295.859 115.5 276.054 115.5 247M31 322.176V247M115.5 111L31 99M115.5 111C115.5 112.328 115.5 113.661 115.5 115M115.5 111V115M31 99V103.5M122.5 177.25L31 170M122.5 177.25V181M31 170V103.5M31 170V175M115.5 247H31M115.5 247C115.5 245.523 115.5 244.023 115.5 242.5M115.5 247V242.5M31 247V242.5M115.5 115L31 103.5M115.5 115C115.5 158.061 115.5 206.553 115.5 242.5M122.5 181L31 175M31 175V242.5M115.5 242.5H31" stroke="black"/>
<path d="M31.5 98.5C31.6667 83 31.9 47.6 31.5 30L115.5 57.5V111L31.5 98.5Z" fill="#5CF1E8" stroke="black"/>
<path d="M267.5 98.5C267.333 83 267.1 47.6 267.5 30L183.5 57.5V111L267.5 98.5Z" fill="#5CF1E8" stroke="black"/>
<path d="M31.5 170V104.5L115.5 115V176.5L31.5 170Z" fill="#5CF1E8" stroke="black"/>
<path d="M267.5 170V104.5L183.5 115V176.5L267.5 170Z" fill="#5CF1E8" stroke="black"/>
<path d="M31.5 241.5V175L116 180.5V241.5H31.5Z" fill="#5CF1E8" stroke="black"/>
<path d="M267.5 241.5V175L183 180.5V241.5H267.5Z" fill="#5CF1E8" stroke="black"/>
<path d="M31.5 322V247H115.5V296L31.5 322Z" fill="#5CF1E8" stroke="black"/>
<path d="M267.5 322V247H183.5V296L267.5 322Z" fill="#5CF1E8" stroke="black"/>
</svg>
